<?xml version="1.0" encoding="iso-8859-1"?>
<!-- Generator: Adobe Illustrator 16.0.0, SVG Export Plug-In . SVG Version: 6.00 Build 0)  -->
<!DOCTYPE svg PUBLIC "-//W3C//DTD SVG 1.1//EN" "http://www.w3.org/Graphics/SVG/1.1/DTD/svg11.dtd">
<svg xmlns="http://www.w3.org/2000/svg" xmlns:xlink="http://www.w3.org/1999/xlink" version="1.1" id="Capa_1" x="0px" y="0px" width="512px" height="512px" viewBox="0 0 42.867 42.867" style="enable-background:new 0 0 42.867 42.867;" xml:space="preserve">
<g>
	<g>
		<path d="M27.363,10.094c0-0.561-0.455-1.017-1.017-1.017h-3.256c-0.562,0-1.018,0.456-1.018,1.017v3.256    c0,0.561,0.456,1.017,1.018,1.017h3.256c0.562,0,1.017-0.456,1.017-1.017V10.094z" fill="#333f4f"/>
		<path d="M19.266,10.094c0-0.561-0.455-1.017-1.017-1.017h-3.255c-0.562,0-1.017,0.456-1.017,1.017v3.256    c0,0.561,0.455,1.017,1.017,1.017h3.255c0.562,0,1.017-0.456,1.017-1.017V10.094z" fill="#333f4f"/>
		<path d="M19.266,18.191c0-0.562-0.455-1.017-1.017-1.017h-3.255c-0.562,0-1.017,0.455-1.017,1.017v3.255    c0,0.562,0.455,1.017,1.017,1.017h3.255c0.562,0,1.017-0.455,1.017-1.017V18.191z" fill="#333f4f"/>
		<path d="M29.779,18.248c0.364,0.56,0.571,1.23,0.56,1.947l-0.051,2.565c-0.013,0.703,0.555,1.279,1.258,1.279h1.892V5.262    C33.438,2.356,31.081,0,28.175,0H13.426c-2.905,0-5.261,2.355-5.261,5.261v30.943c0,2.905,2.355,5.261,5.261,5.261h8.405    c-0.012-0.128-0.018-0.259-0.015-0.389l0.062-3.203h-5.577c-0.733,0-1.354-0.576-1.37-1.311c-0.016-0.76,0.596-1.367,1.353-1.367    h5.646l0.009-0.436l-4.571-3.222h-5.61V5.257c0-0.916,0.75-1.666,1.666-1.666h14.735c0.896,0,1.621,0.726,1.621,1.622    L29.779,18.248L29.779,18.248z" fill="#333f4f"/>
		<path d="M34.224,26.223c-0.31-0.312-0.729-0.488-1.168-0.49l-3.004-0.018c-0.438-0.002-0.857-0.179-1.166-0.49    c-0.309-0.312-0.48-0.733-0.479-1.172l0.012-3.892c0.002-0.855-0.69-1.549-1.545-1.549h-1.422c-0.852,0-1.541,0.688-1.544,1.539    l-0.024,6.811c-0.002,0.312-0.174,0.597-0.446,0.744c-0.123,0.067-0.259,0.101-0.394,0.103c-0.166,0.002-0.33-0.043-0.474-0.135    l-0.946-0.609c-0.284-0.182-0.602-0.267-0.916-0.262c-0.536,0.008-1.059,0.274-1.37,0.758l-0.65,1.012    c-0.237,0.369-0.318,0.816-0.225,1.244c0.093,0.43,0.353,0.804,0.721,1.041l3.896,2.506c0.476,0.307,0.763,0.835,0.759,1.4    l-0.037,6.398c-0.002,0.439,0.17,0.859,0.479,1.172s0.729,0.489,1.166,0.491l7.516,0.042c0.012,0,0.021,0,0.032,0    c0.897-0.012,1.625-0.742,1.63-1.645l0.078-13.828C34.704,26.957,34.531,26.535,34.224,26.223z" fill="#333f4f"/>
	</g>
</g>
<g>
</g>
<g>
</g>
<g>
</g>
<g>
</g>
<g>
</g>
<g>
</g>
<g>
</g>
<g>
</g>
<g>
</g>
<g>
</g>
<g>
</g>
<g>
</g>
<g>
</g>
<g>
</g>
<g>
</g>
</svg>
